<svg xmlns="http://www.w3.org/2000/svg" xmlns:xlink="http://www.w3.org/1999/xlink" width="500" zoomAndPan="magnify" viewBox="0 0 375 374.999991" height="500" preserveAspectRatio="xMidYMid meet" version="1.0"><defs><g/><clipPath id="304d45310f"><path d="M 233 133.382812 L 277.976562 133.382812 L 277.976562 218 L 233 218 Z M 233 133.382812 " clip-rule="nonzero"/></clipPath></defs><g clip-path="url(#304d45310f)"><path fill="#ffffff" d="M 241.308594 138.242188 C 241.339844 138.027344 241.359375 137.8125 241.273438 137.675781 C 241.21875 137.589844 241.105469 137.519531 240.960938 137.480469 C 240.8125 137.4375 240.636719 137.4375 240.449219 137.4375 L 239.136719 137.429688 C 239.105469 137.449219 239.074219 137.46875 239.035156 137.480469 C 237.894531 137.800781 236.90625 138.667969 236.398438 139.742188 C 237.410156 139.621094 238.4375 139.597656 239.449219 139.679688 C 239.773438 139.703125 240.09375 139.742188 240.410156 139.792969 C 240.445312 139.734375 240.507812 139.695312 240.578125 139.679688 C 240.859375 139.621094 241.09375 139.382812 241.15625 139.101562 C 241.171875 139.03125 241.214844 138.976562 241.269531 138.9375 C 241.230469 138.710938 241.265625 138.484375 241.300781 138.277344 Z M 241.300781 160.304688 C 241.433594 159.828125 241.28125 159.253906 240.898438 158.816406 C 240.578125 158.453125 240.097656 158.171875 239.488281 157.972656 C 239.796875 158.925781 240.460938 159.765625 241.300781 160.304688 Z M 243.128906 140.722656 C 243.039062 140.558594 242.941406 140.417969 242.808594 140.3125 C 242.675781 140.207031 242.503906 140.140625 242.328125 140.066406 C 242.234375 140.027344 242.140625 139.992188 242.054688 139.949219 C 241.867188 139.863281 241.707031 139.730469 241.578125 139.566406 C 241.496094 139.714844 241.382812 139.847656 241.246094 139.957031 C 241.332031 139.972656 241.414062 139.984375 241.496094 140.003906 C 242.070312 140.148438 242.609375 140.433594 243.128906 140.722656 Z M 242.90625 159.847656 C 242.960938 159.761719 243.027344 159.671875 243.109375 159.589844 C 242.3125 158.476562 241.683594 157.257812 241.257812 155.980469 C 241.050781 155.832031 240.894531 155.660156 240.773438 155.5 C 240.710938 155.421875 240.65625 155.34375 240.605469 155.269531 C 240.597656 155.484375 240.578125 155.714844 240.523438 155.96875 C 240.476562 156.15625 240.417969 156.355469 240.339844 156.558594 C 240.257812 156.746094 240.171875 156.988281 239.925781 157.199219 C 239.808594 157.296875 239.59375 157.398438 239.386719 157.355469 C 239.367188 157.351562 239.351562 157.34375 239.328125 157.335938 L 239.34375 157.386719 C 239.355469 157.390625 239.371094 157.386719 239.386719 157.390625 C 240.222656 157.617188 240.863281 157.980469 241.292969 158.472656 C 241.820312 159.074219 242 159.898438 241.765625 160.558594 C 241.808594 160.582031 241.847656 160.605469 241.894531 160.625 C 242 160.539062 242.109375 160.460938 242.210938 160.402344 L 242.328125 160.335938 C 242.507812 160.234375 242.675781 160.140625 242.789062 160.011719 C 242.832031 159.957031 242.867188 159.902344 242.90625 159.847656 Z M 243.625 141.773438 C 243.574219 141.695312 243.535156 141.613281 243.5 141.53125 C 243.453125 141.53125 243.410156 141.519531 243.367188 141.5 C 243.253906 141.4375 243.136719 141.371094 243.015625 141.304688 C 242.480469 141 241.921875 140.6875 241.363281 140.550781 C 240.738281 140.398438 240.078125 140.289062 239.410156 140.238281 C 238.578125 140.167969 237.738281 140.175781 236.902344 140.25 C 237.019531 140.335938 237.128906 140.410156 237.226562 140.453125 C 237.320312 140.5 237.402344 140.582031 237.449219 140.671875 C 237.894531 140.808594 238.355469 140.898438 238.800781 140.972656 C 238.964844 141 239.121094 141.027344 239.28125 141.046875 C 239.976562 141.160156 240.691406 141.269531 241.378906 141.507812 C 241.507812 141.554688 241.644531 141.601562 241.773438 141.65625 C 242.089844 141.773438 242.386719 141.886719 242.691406 141.9375 C 242.992188 141.980469 243.367188 141.945312 243.625 141.773438 Z M 244.316406 162.175781 L 244.761719 161.496094 C 244.285156 161.035156 243.839844 160.539062 243.429688 160.011719 C 243.398438 160.054688 243.367188 160.09375 243.339844 160.140625 C 243.292969 160.210938 243.242188 160.28125 243.1875 160.347656 C 243.015625 160.550781 242.789062 160.679688 242.589844 160.789062 L 242.480469 160.855469 C 242.386719 160.910156 242.28125 160.976562 242.191406 161.058594 C 242.453125 161.796875 242.941406 162.484375 243.585938 163.023438 C 243.644531 162.96875 243.699219 162.910156 243.757812 162.859375 C 243.800781 162.820312 243.84375 162.777344 243.890625 162.734375 C 244.054688 162.578125 244.183594 162.371094 244.316406 162.175781 Z M 245.433594 160.335938 C 245.46875 160.1875 245.449219 159.984375 245.332031 159.886719 C 245.214844 159.789062 245.019531 159.792969 244.875 159.808594 C 244.796875 159.816406 244.722656 159.832031 244.652344 159.847656 C 244.492188 159.878906 244.332031 159.910156 244.148438 159.902344 C 244.113281 159.902344 244.082031 159.902344 244.046875 159.898438 C 244.371094 160.289062 244.710938 160.664062 245.074219 161.019531 L 245.132812 160.933594 C 245.257812 160.742188 245.390625 160.542969 245.433594 160.335938 Z M 245.332031 163.265625 C 245.59375 163.046875 245.746094 162.703125 245.742188 162.363281 C 245.535156 162.203125 245.34375 162.03125 245.148438 161.863281 L 244.753906 162.464844 C 244.617188 162.671875 244.460938 162.910156 244.257812 163.109375 C 244.207031 163.160156 244.15625 163.207031 244.101562 163.253906 C 244.070312 163.28125 244.042969 163.308594 244.015625 163.339844 C 244.078125 163.382812 244.144531 163.417969 244.207031 163.457031 C 244.226562 163.457031 244.246094 163.457031 244.265625 163.464844 C 244.621094 163.582031 245.042969 163.503906 245.332031 163.265625 Z M 246.695312 166.324219 C 246.828125 166.34375 246.964844 166.339844 247.101562 166.308594 C 246.601562 165.449219 246.132812 164.582031 245.683594 163.703125 C 245.527344 163.828125 245.355469 163.921875 245.175781 163.984375 C 245.175781 163.988281 245.179688 163.992188 245.183594 163.996094 C 245.695312 164.792969 246.195312 165.570312 246.695312 166.324219 Z M 247.027344 161.320312 C 247.082031 161.144531 247.074219 160.953125 247.039062 160.753906 C 246.777344 160.152344 246.582031 159.527344 246.445312 158.890625 C 246.316406 158.871094 246.1875 158.84375 246.066406 158.8125 C 245.289062 158.582031 244.671875 158.121094 244.238281 157.597656 C 243.804688 157.078125 243.5625 156.5 243.460938 156.007812 C 243.414062 155.804688 243.398438 155.613281 243.386719 155.4375 C 243.148438 155.742188 242.816406 156.023438 242.363281 156.160156 C 242.230469 156.203125 242.085938 156.214844 241.941406 156.210938 C 242.351562 157.320312 242.925781 158.382812 243.632812 159.351562 C 243.75 159.34375 243.863281 159.355469 243.96875 159.363281 C 244.03125 159.371094 244.09375 159.382812 244.160156 159.382812 C 244.296875 159.390625 244.414062 159.359375 244.554688 159.332031 C 244.636719 159.316406 244.722656 159.300781 244.804688 159.289062 C 245.167969 159.242188 245.457031 159.308594 245.667969 159.484375 C 245.921875 159.695312 246.03125 160.074219 245.949219 160.449219 C 245.878906 160.75 245.714844 161 245.570312 161.222656 L 245.460938 161.390625 C 245.601562 161.515625 245.746094 161.632812 245.890625 161.753906 C 245.964844 161.71875 246.042969 161.710938 246.117188 161.742188 C 246.28125 161.808594 246.476562 161.792969 246.660156 161.710938 C 246.839844 161.625 246.972656 161.484375 247.027344 161.320312 Z M 248.148438 168.484375 C 248.207031 168.429688 248.269531 168.378906 248.335938 168.332031 C 248.011719 167.820312 247.6875 167.300781 247.378906 166.777344 C 247.269531 166.808594 247.15625 166.839844 247.039062 166.847656 C 247.417969 167.40625 247.78125 167.953125 248.148438 168.484375 Z M 248.148438 165.636719 C 248.226562 165.644531 248.296875 165.644531 248.367188 165.640625 C 247.703125 164.59375 247.015625 163.550781 246.289062 162.542969 C 246.269531 162.789062 246.1875 163.03125 246.066406 163.246094 C 246.074219 163.261719 246.09375 163.273438 246.097656 163.289062 C 246.578125 164.230469 247.082031 165.160156 247.613281 166.070312 C 247.726562 165.988281 247.824219 165.878906 247.894531 165.761719 C 247.945312 165.671875 248.042969 165.621094 248.148438 165.636719 Z M 249.289062 164.917969 C 249.363281 164.894531 249.445312 164.847656 249.519531 164.792969 C 249.15625 164.222656 248.792969 163.652344 248.4375 163.078125 C 248.082031 162.628906 247.761719 162.15625 247.492188 161.660156 C 247.367188 161.898438 247.15625 162.097656 246.894531 162.21875 C 246.859375 162.238281 246.816406 162.246094 246.777344 162.261719 C 247.515625 163.289062 248.214844 164.347656 248.890625 165.421875 C 248.988281 165.308594 249.074219 165.171875 249.148438 165.039062 C 249.179688 164.984375 249.226562 164.941406 249.289062 164.917969 Z M 249.542969 167.640625 C 249.566406 167.632812 249.585938 167.632812 249.601562 167.625 C 249.296875 167.128906 248.988281 166.628906 248.671875 166.132812 C 248.527344 166.164062 248.382812 166.171875 248.25 166.167969 C 248.148438 166.304688 248.019531 166.421875 247.882812 166.519531 C 248.203125 167.0625 248.527344 167.589844 248.863281 168.117188 C 248.917969 168.105469 248.980469 168.097656 249.039062 168.097656 C 249.148438 167.878906 249.355469 167.71875 249.542969 167.640625 Z M 249.992188 162.492188 C 249.890625 162.308594 249.785156 162.125 249.679688 161.949219 C 249.066406 160.894531 248.4375 159.808594 248.0625 158.609375 C 247.820312 158.757812 247.53125 158.859375 247.242188 158.902344 C 247.183594 158.910156 247.128906 158.910156 247.078125 158.917969 C 247.277344 159.40625 247.4375 159.910156 247.546875 160.429688 C 247.5625 160.484375 247.574219 160.539062 247.585938 160.589844 C 247.667969 160.777344 247.75 160.957031 247.84375 161.132812 C 247.882812 161.160156 247.917969 161.1875 247.9375 161.226562 C 248.253906 161.726562 248.566406 162.230469 248.882812 162.734375 C 248.898438 162.757812 248.917969 162.78125 248.9375 162.804688 C 249.308594 162.789062 249.671875 162.679688 249.992188 162.492188 Z M 249.863281 170.910156 C 249.9375 170.921875 250.011719 170.929688 250.085938 170.925781 C 249.578125 170.21875 249.085938 169.503906 248.617188 168.773438 C 248.554688 168.820312 248.5 168.867188 248.453125 168.925781 C 248.925781 169.609375 249.394531 170.269531 249.863281 170.910156 Z M 250.65625 170.757812 C 250.890625 170.609375 251.070312 170.375 251.152344 170.109375 C 250.722656 169.433594 250.300781 168.761719 249.890625 168.097656 C 249.839844 168.105469 249.789062 168.109375 249.742188 168.128906 C 249.613281 168.179688 249.496094 168.304688 249.484375 168.398438 C 249.464844 168.542969 249.339844 168.636719 249.191406 168.625 C 249.1875 168.625 249.1875 168.625 249.1875 168.625 C 249.660156 169.347656 250.152344 170.054688 250.65625 170.757812 Z M 250.859375 166.898438 C 250.503906 166.347656 250.152344 165.792969 249.796875 165.242188 C 249.71875 165.296875 249.640625 165.339844 249.558594 165.378906 C 249.457031 165.542969 249.34375 165.726562 249.179688 165.875 C 249.515625 166.421875 249.851562 166.960938 250.179688 167.5 C 250.355469 167.261719 250.59375 167.035156 250.859375 166.898438 Z M 251.027344 177.894531 C 251.039062 177.90625 251.058594 177.910156 251.066406 177.921875 C 251.035156 177.664062 250.9375 177.429688 250.78125 177.265625 C 250.640625 177.121094 250.582031 176.957031 250.539062 176.800781 C 249.847656 176.457031 249.230469 175.953125 248.761719 175.304688 C 248.351562 175.203125 247.945312 175.078125 247.546875 174.949219 C 247.464844 175.132812 247.324219 175.300781 247.136719 175.417969 C 246.882812 175.582031 246.613281 175.636719 246.332031 175.6875 L 245.972656 175.75 C 245.34375 175.855469 244.75 175.953125 244.183594 176.152344 C 243.8125 176.277344 243.582031 176.417969 243.460938 176.597656 C 243.5 176.578125 243.546875 176.566406 243.589844 176.554688 C 243.65625 176.535156 243.726562 176.535156 243.789062 176.550781 C 244.839844 176.835938 246.121094 176.660156 247.054688 176.097656 C 247.117188 176.058594 247.1875 176.039062 247.257812 176.039062 C 247.867188 176.058594 248.332031 176.449219 248.742188 176.792969 L 248.972656 176.992188 C 249.316406 177.28125 249.640625 177.558594 250.015625 177.664062 C 250.09375 177.6875 250.191406 177.691406 250.300781 177.699219 C 250.519531 177.714844 250.789062 177.730469 251.027344 177.894531 Z M 251.371094 172.808594 C 251.398438 172.796875 251.429688 172.785156 251.457031 172.773438 C 251.109375 172.324219 250.761719 171.871094 250.433594 171.414062 C 250.371094 171.425781 250.3125 171.4375 250.253906 171.441406 C 250.609375 171.925781 250.960938 172.390625 251.3125 172.851562 C 251.328125 172.835938 251.347656 172.820312 251.371094 172.808594 Z M 251.464844 165.007812 C 251.46875 164.996094 251.472656 164.988281 251.480469 164.976562 C 251.121094 164.394531 250.761719 163.808594 250.417969 163.21875 C 250.324219 163.15625 250.230469 163.089844 250.140625 163.011719 C 249.890625 163.144531 249.621094 163.230469 249.347656 163.28125 C 249.839844 163.828125 250.398438 164.324219 251.007812 164.75 C 251.179688 164.875 251.328125 164.953125 251.464844 165.007812 Z M 251.640625 159.0625 C 251.449219 158.527344 251.253906 157.996094 251.058594 157.46875 C 250.667969 157.375 250.285156 157.1875 249.949219 156.925781 C 249.601562 156.660156 249.332031 156.347656 249.105469 156.046875 C 249.121094 156.265625 249.132812 156.523438 249.09375 156.824219 C 249.054688 157.132812 248.96875 157.5 248.769531 157.855469 C 249.355469 157.945312 249.890625 158.296875 250.195312 158.8125 C 250.6875 158.808594 251.1875 158.902344 251.640625 159.0625 Z M 251.847656 144.679688 C 251.800781 144.578125 251.742188 144.46875 251.699219 144.363281 C 251.296875 143.414062 251.253906 142.617188 251.214844 141.769531 C 251.199219 141.457031 251.179688 141.132812 251.140625 140.789062 C 251.050781 139.917969 250.863281 138.804688 250.253906 137.972656 C 249.574219 137.054688 248.421875 136.515625 247.40625 136.042969 C 245.984375 135.382812 244.515625 134.703125 242.964844 134.535156 C 242.007812 134.433594 241.164062 134.570312 240.527344 134.921875 C 239.921875 135.257812 239.449219 136.117188 239.425781 136.871094 L 240.449219 136.878906 C 240.664062 136.878906 240.878906 136.878906 241.105469 136.933594 C 241.390625 137.007812 241.617188 137.167969 241.746094 137.378906 C 241.933594 137.675781 241.910156 138.019531 241.859375 138.324219 L 241.851562 138.371094 C 241.820312 138.582031 241.785156 138.789062 241.847656 138.945312 C 241.941406 139.175781 242.097656 139.351562 242.292969 139.441406 C 242.375 139.480469 242.457031 139.515625 242.539062 139.546875 C 242.746094 139.628906 242.960938 139.714844 243.152344 139.871094 C 243.511719 140.148438 243.679688 140.546875 243.839844 140.933594 C 243.90625 141.085938 243.964844 141.222656 244.035156 141.355469 C 244.082031 141.367188 244.128906 141.386719 244.164062 141.421875 L 245.574219 142.84375 C 246.191406 143.472656 246.832031 144.117188 247.566406 144.613281 C 248.359375 145.152344 249.179688 145.4375 249.945312 145.4375 C 249.949219 145.4375 249.953125 145.4375 249.960938 145.4375 C 250.703125 145.4375 251.390625 145.15625 251.847656 144.679688 Z M 252.621094 169.589844 C 252.125 168.839844 251.628906 168.089844 251.140625 167.335938 C 250.894531 167.445312 250.613281 167.734375 250.503906 167.957031 C 250.503906 167.96875 250.492188 167.976562 250.484375 167.988281 C 250.878906 168.625 251.277344 169.257812 251.679688 169.898438 C 252.039062 169.886719 252.367188 169.78125 252.621094 169.589844 Z M 252.007812 166.148438 L 251.679688 165.625 C 251.296875 165.605469 250.9375 165.390625 250.683594 165.210938 C 250.53125 165.101562 250.378906 164.988281 250.230469 164.871094 C 250.574219 165.417969 250.925781 165.960938 251.277344 166.507812 C 251.480469 166.320312 251.738281 166.195312 252.007812 166.148438 Z M 253.085938 162.753906 C 252.664062 161.761719 252.273438 160.75 251.894531 159.738281 C 251.359375 159.457031 250.695312 159.308594 250.050781 159.34375 C 249.945312 159.351562 249.847656 159.289062 249.800781 159.1875 C 249.582031 158.722656 249.09375 158.394531 248.570312 158.355469 C 248.921875 159.527344 249.550781 160.613281 250.160156 161.667969 C 250.398438 162.070312 250.632812 162.476562 250.875 162.882812 C 251.140625 163.03125 251.433594 163.132812 251.726562 163.152344 C 252.207031 163.183594 252.699219 163.035156 253.085938 162.753906 Z M 252.132812 172.179688 C 252.21875 172.121094 252.308594 172.074219 252.402344 172.039062 C 252.253906 171.816406 252.101562 171.59375 251.957031 171.378906 C 251.800781 171.128906 251.644531 170.886719 251.488281 170.640625 C 251.355469 170.859375 251.171875 171.046875 250.960938 171.183594 C 251.265625 171.601562 251.574219 172.011719 251.886719 172.417969 C 251.957031 172.324219 252.039062 172.242188 252.132812 172.179688 Z M 252.28125 173.816406 C 252.121094 173.613281 251.960938 173.410156 251.800781 173.207031 C 251.800781 173.207031 251.800781 173.214844 251.792969 173.214844 C 251.738281 173.230469 251.679688 173.25 251.632812 173.269531 C 251.757812 173.433594 251.882812 173.59375 252.011719 173.753906 C 252.101562 173.78125 252.191406 173.796875 252.28125 173.816406 Z M 252.34375 145.625 C 252.261719 145.484375 252.183594 145.347656 252.109375 145.207031 C 251.554688 145.707031 250.78125 146 249.960938 146 C 249.953125 146 249.945312 146 249.941406 146 C 249.070312 145.996094 248.136719 145.675781 247.25 145.078125 C 246.472656 144.550781 245.808594 143.886719 245.175781 143.238281 L 244.078125 142.132812 C 243.757812 142.414062 243.3125 142.515625 242.929688 142.515625 C 242.8125 142.515625 242.703125 142.503906 242.609375 142.492188 C 242.238281 142.433594 241.898438 142.304688 241.570312 142.179688 C 241.445312 142.132812 241.320312 142.082031 241.195312 142.039062 C 240.554688 141.816406 239.867188 141.707031 239.195312 141.605469 C 239.035156 141.582031 238.875 141.554688 238.714844 141.527344 C 238.28125 141.457031 237.839844 141.371094 237.40625 141.246094 C 237.394531 141.269531 237.375 141.292969 237.355469 141.3125 C 237.054688 141.585938 236.863281 142.105469 236.902344 142.503906 C 236.917969 142.625 236.886719 142.75 236.820312 142.847656 C 235.027344 145.597656 234.132812 148.921875 234.308594 152.199219 C 234.347656 152.945312 234.585938 153.621094 235.011719 154.21875 C 234.96875 154.113281 234.929688 154.019531 234.894531 153.925781 C 234.742188 153.425781 234.789062 153.101562 234.863281 153.089844 C 234.949219 153.078125 235.050781 153.359375 235.28125 153.75 C 235.445312 154.019531 235.6875 154.34375 236.015625 154.636719 C 236.023438 153.089844 236.152344 151.878906 236.320312 151.878906 C 236.492188 151.878906 236.636719 153.238281 236.644531 154.917969 C 236.644531 155.035156 236.644531 155.148438 236.644531 155.261719 L 236.644531 155.269531 C 236.644531 155.4375 236.503906 155.578125 236.335938 155.578125 C 236.273438 155.578125 236.214844 155.5625 236.164062 155.527344 C 236.035156 155.445312 235.917969 155.359375 235.808594 155.257812 C 236.179688 158.660156 236.789062 161.363281 237.726562 163.785156 C 238.617188 166.082031 239.839844 168.105469 241.300781 169.730469 C 241.425781 169.59375 241.582031 169.476562 241.753906 169.40625 C 241.757812 168.90625 242.011719 168.386719 242.402344 168.074219 C 242.375 167.511719 242.394531 166.261719 242.941406 165.511719 C 242.960938 165.007812 243.140625 164.3125 243.539062 163.914062 C 242.570312 163.253906 241.8125 162.300781 241.464844 161.253906 C 239.996094 160.578125 238.917969 159.195312 238.621094 157.605469 L 238.519531 157.074219 C 238.292969 155.90625 238.082031 154.78125 238.160156 153.65625 C 238.125 153.710938 238.085938 153.769531 238.042969 153.820312 C 237.699219 154.296875 237.335938 154.441406 237.292969 154.371094 C 237.234375 154.300781 237.453125 154.054688 237.660156 153.59375 C 237.875 153.132812 238.074219 152.433594 238.273438 151.648438 C 238.671875 150.089844 238.785156 148.765625 238.964844 148.765625 C 239.109375 148.757812 239.265625 149.851562 239.003906 151.25 C 239.292969 150.972656 239.648438 150.773438 239.957031 150.597656 C 240.96875 150.015625 241.992188 149.5 242.984375 148.996094 C 244.136719 148.417969 245.433594 147.765625 246.777344 147.328125 C 247.066406 147.238281 247.351562 147.175781 247.632812 147.117188 C 247.980469 147.039062 248.308594 146.96875 248.609375 146.851562 C 248.660156 146.828125 248.707031 146.820312 248.753906 146.800781 C 248.621094 146.738281 248.546875 146.671875 248.558594 146.625 C 248.601562 146.449219 249.410156 146.511719 250.335938 146.277344 C 251.203125 146.078125 251.851562 145.699219 252.039062 145.75 C 252.140625 145.707031 252.246094 145.660156 252.34375 145.625 Z M 249.511719 174.550781 C 250.308594 175.746094 251.648438 176.367188 253.0625 176.242188 C 250.296875 172.9375 247.574219 169.144531 244.621094 164.5 C 244.421875 164.421875 244.226562 164.328125 244.039062 164.226562 C 243.71875 164.421875 243.492188 165.09375 243.503906 165.605469 C 243.507812 165.671875 243.480469 165.738281 243.441406 165.792969 C 243.003906 166.308594 242.914062 167.371094 242.96875 168.191406 C 242.976562 168.296875 242.925781 168.398438 242.839844 168.453125 C 242.488281 168.664062 242.261719 169.164062 242.324219 169.566406 C 242.339844 169.640625 242.320312 169.714844 242.277344 169.777344 C 242.230469 169.839844 242.164062 169.878906 242.09375 169.886719 C 241.929688 169.917969 241.785156 170.019531 241.683594 170.15625 C 241.949219 170.425781 242.210938 170.683594 242.488281 170.925781 C 244.25 172.5 246.695312 173.742188 249.195312 174.332031 C 249.324219 174.363281 249.4375 174.4375 249.511719 174.550781 Z M 252.984375 173.761719 L 253.289062 173.308594 C 253.09375 173.039062 252.90625 172.769531 252.726562 172.511719 C 252.621094 172.519531 252.519531 172.546875 252.4375 172.605469 C 252.347656 172.667969 252.285156 172.761719 252.238281 172.855469 C 252.484375 173.164062 252.726562 173.472656 252.976562 173.769531 C 252.976562 173.765625 252.980469 173.761719 252.984375 173.761719 Z M 253.699219 171.167969 C 253.433594 170.785156 253.175781 170.40625 252.917969 170.023438 C 252.652344 170.214844 252.339844 170.339844 251.996094 170.394531 C 252.140625 170.621094 252.285156 170.847656 252.429688 171.066406 C 252.570312 171.285156 252.722656 171.507812 252.875 171.734375 C 253.09375 171.476562 253.382812 171.277344 253.699219 171.167969 Z M 253.765625 168.925781 L 252.328125 166.660156 C 252.050781 166.621094 251.753906 166.75 251.566406 166.960938 C 252.058594 167.714844 252.546875 168.46875 253.046875 169.210938 C 253.082031 169.203125 253.117188 169.195312 253.148438 169.195312 C 253.367188 169.222656 253.617188 169.105469 253.765625 168.925781 Z M 252.828125 166.050781 C 253.253906 165.683594 253.808594 165.488281 254.367188 165.496094 C 253.992188 164.757812 253.632812 164.003906 253.300781 163.242188 C 252.875 163.519531 252.371094 163.679688 251.863281 163.679688 C 251.804688 163.679688 251.75 163.679688 251.6875 163.675781 C 251.5625 163.664062 251.433594 163.644531 251.3125 163.617188 C 251.800781 164.4375 252.300781 165.253906 252.828125 166.050781 Z M 254.429688 173.121094 C 254.585938 173.039062 254.71875 172.917969 254.820312 172.769531 C 254.546875 172.390625 254.28125 172.007812 254.015625 171.621094 C 253.683594 171.695312 253.375 171.90625 253.1875 172.1875 C 253.417969 172.527344 253.664062 172.867188 253.921875 173.21875 C 254.101562 173.21875 254.285156 173.1875 254.429688 173.121094 Z M 254.746094 170.480469 L 254.054688 169.382812 C 253.867188 169.554688 253.625 169.671875 253.382812 169.710938 C 253.632812 170.085938 253.890625 170.460938 254.148438 170.835938 C 254.226562 170.730469 254.324219 170.640625 254.445312 170.574219 C 254.542969 170.527344 254.644531 170.496094 254.746094 170.480469 Z M 254.933594 175.59375 C 254.945312 175.550781 254.964844 175.511719 254.976562 175.46875 C 254.488281 174.898438 254.042969 174.320312 253.621094 173.75 L 253.417969 174.050781 C 253.394531 174.085938 253.355469 174.136719 253.316406 174.179688 C 253.773438 174.722656 254.234375 175.253906 254.707031 175.78125 C 254.773438 175.707031 254.847656 175.644531 254.933594 175.59375 Z M 255.84375 170.003906 C 255.785156 169.875 255.71875 169.746094 255.660156 169.609375 C 255.617188 169.605469 255.574219 169.597656 255.535156 169.585938 C 255.148438 169.464844 254.800781 169.269531 254.488281 169.027344 L 255.273438 170.257812 C 255.441406 170.128906 255.640625 170.039062 255.84375 170.003906 Z M 255.820312 174.144531 C 255.773438 174.082031 255.722656 174.015625 255.675781 173.949219 C 255.496094 173.707031 255.320312 173.457031 255.140625 173.214844 C 255.003906 173.363281 254.84375 173.496094 254.664062 173.585938 C 254.546875 173.640625 254.421875 173.679688 254.292969 173.710938 C 254.589844 174.105469 254.902344 174.5 255.234375 174.890625 C 255.320312 174.722656 255.417969 174.570312 255.515625 174.4375 C 255.597656 174.34375 255.691406 174.234375 255.820312 174.144531 Z M 255.84375 172.214844 L 255.089844 171.019531 C 255.089844 171.019531 255.089844 171.019531 255.082031 171.019531 C 254.957031 170.972656 254.804688 170.976562 254.683594 171.042969 C 254.609375 171.082031 254.527344 171.183594 254.472656 171.304688 C 254.71875 171.65625 254.96875 172.011719 255.21875 172.359375 C 255.242188 172.359375 255.265625 172.363281 255.289062 172.371094 C 255.398438 172.410156 255.558594 172.378906 255.71875 172.296875 C 255.761719 172.273438 255.800781 172.242188 255.84375 172.214844 Z M 255.988281 176.855469 C 255.988281 176.785156 256.023438 176.726562 256.074219 176.679688 C 255.832031 176.429688 255.597656 176.167969 255.367188 175.910156 C 255.339844 175.957031 255.304688 175.996094 255.253906 176.019531 C 255.179688 176.050781 255.117188 176.105469 255.070312 176.167969 C 255.304688 176.421875 255.542969 176.679688 255.78125 176.929688 C 255.816406 176.921875 255.855469 176.917969 255.894531 176.925781 C 255.90625 176.929688 255.929688 176.925781 255.949219 176.90625 C 255.976562 176.890625 255.988281 176.867188 255.988281 176.855469 Z M 255.699219 169.046875 C 256.144531 169.183594 256.640625 169.132812 256.988281 168.925781 C 256.648438 168.699219 256.320312 168.421875 256.019531 168.089844 C 255.453125 167.46875 255.03125 166.75 254.65625 166.054688 C 254.121094 165.949219 253.527344 166.117188 253.125 166.492188 C 253.273438 166.703125 253.410156 166.925781 253.558594 167.136719 C 254.105469 167.914062 254.769531 168.761719 255.699219 169.046875 Z M 256.757812 173.628906 C 256.539062 173.300781 256.332031 172.976562 256.121094 172.648438 C 256.070312 172.6875 256.023438 172.726562 255.96875 172.753906 C 255.847656 172.824219 255.722656 172.867188 255.597656 172.890625 C 255.773438 173.132812 255.949219 173.378906 256.125 173.617188 C 256.191406 173.707031 256.261719 173.796875 256.332031 173.890625 C 256.453125 173.769531 256.597656 173.679688 256.757812 173.628906 Z M 256.660156 171.6875 C 256.464844 171.300781 256.273438 170.910156 256.085938 170.519531 C 256.082031 170.519531 256.078125 170.519531 256.074219 170.519531 C 255.910156 170.496094 255.699219 170.578125 255.554688 170.703125 L 256.28125 171.851562 C 256.296875 171.851562 256.3125 171.84375 256.332031 171.839844 C 256.433594 171.832031 256.558594 171.769531 256.660156 171.6875 Z M 256.921875 178.085938 C 256.992188 177.96875 257.097656 177.867188 257.21875 177.796875 C 256.960938 177.566406 256.71875 177.328125 256.476562 177.089844 C 256.46875 177.089844 256.460938 177.09375 256.453125 177.097656 C 256.414062 177.183594 256.347656 177.261719 256.265625 177.324219 C 256.246094 177.339844 256.21875 177.347656 256.199219 177.363281 C 256.4375 177.605469 256.679688 177.847656 256.921875 178.085938 Z M 257.351562 176.09375 C 257.367188 176.078125 257.367188 176.066406 257.378906 176.050781 C 257.273438 175.921875 257.164062 175.800781 257.042969 175.683594 C 256.898438 175.53125 256.746094 175.382812 256.609375 175.203125 C 256.449219 174.992188 256.292969 174.777344 256.132812 174.5625 C 256.058594 174.609375 255.988281 174.691406 255.929688 174.765625 C 255.8125 174.910156 255.699219 175.109375 255.597656 175.328125 C 255.9375 175.714844 256.289062 176.09375 256.652344 176.46875 C 256.722656 176.4375 256.789062 176.410156 256.859375 176.378906 L 257.03125 176.300781 C 257.144531 176.246094 257.273438 176.183594 257.351562 176.09375 Z M 257.257812 173.363281 C 257.332031 173.3125 257.410156 173.269531 257.492188 173.246094 C 257.292969 172.882812 257.097656 172.519531 256.90625 172.152344 C 256.808594 172.222656 256.695312 172.28125 256.570312 172.316406 C 256.796875 172.667969 257.023438 173.019531 257.257812 173.363281 Z M 257.664062 175.519531 C 257.800781 175.472656 257.921875 175.402344 258.035156 175.308594 C 257.695312 174.921875 257.382812 174.515625 257.082031 174.09375 C 256.929688 174.09375 256.761719 174.179688 256.648438 174.3125 C 256.785156 174.496094 256.921875 174.679688 257.058594 174.863281 C 257.171875 175.011719 257.304688 175.148438 257.445312 175.285156 C 257.515625 175.363281 257.59375 175.4375 257.664062 175.519531 Z M 257.832031 177.09375 C 257.910156 177.039062 257.996094 177 258.085938 176.964844 C 257.953125 176.800781 257.828125 176.636719 257.707031 176.476562 C 257.566406 176.621094 257.394531 176.710938 257.238281 176.78125 L 257.074219 176.855469 C 257.066406 176.855469 257.054688 176.863281 257.046875 176.863281 C 257.21875 177.03125 257.394531 177.199219 257.570312 177.363281 C 257.644531 177.253906 257.738281 177.160156 257.832031 177.09375 Z M 258.386719 174.855469 C 258.394531 174.839844 258.40625 174.828125 258.410156 174.808594 C 258.191406 174.457031 257.988281 174.097656 257.785156 173.742188 C 257.75 173.742188 257.726562 173.742188 257.703125 173.730469 C 257.667969 173.722656 257.609375 173.746094 257.554688 173.789062 C 257.816406 174.160156 258.09375 174.515625 258.386719 174.855469 Z M 259.089844 176.347656 C 258.84375 176.140625 258.613281 175.921875 258.394531 175.695312 C 258.277344 175.789062 258.148438 175.875 258.011719 175.945312 C 258.203125 176.199219 258.40625 176.464844 258.621094 176.742188 C 258.75 176.59375 258.914062 176.453125 259.089844 176.347656 Z M 258.785156 179.15625 C 258.789062 179.140625 258.796875 179.128906 258.800781 179.117188 C 258.40625 178.820312 258.027344 178.507812 257.660156 178.1875 C 257.644531 178.1875 257.644531 178.191406 257.632812 178.199219 C 257.496094 178.207031 257.367188 178.308594 257.328125 178.441406 C 257.324219 178.449219 257.316406 178.457031 257.3125 178.46875 C 257.675781 178.820312 258.042969 179.171875 258.417969 179.511719 C 258.421875 179.511719 258.425781 179.507812 258.433594 179.507812 C 258.601562 179.480469 258.757812 179.324219 258.785156 179.15625 Z M 258.960938 161.328125 C 258.988281 160.761719 258.960938 160.21875 258.90625 159.695312 C 258.84375 159.328125 258.792969 158.980469 258.75 158.667969 C 258.746094 158.621094 258.738281 158.582031 258.738281 158.539062 C 258.59375 157.835938 258.40625 157.199219 258.210938 156.675781 C 257.785156 155.535156 257.382812 154.871094 257.464844 154.816406 C 257.523438 154.773438 258.066406 155.359375 258.621094 156.507812 C 258.6875 156.644531 258.757812 156.789062 258.820312 156.945312 C 258.804688 156.84375 258.792969 156.742188 258.777344 156.632812 C 258.6875 156.074219 258.535156 155.464844 258.304688 154.847656 C 257.863281 153.648438 257.21875 152.671875 256.683594 152.019531 C 256.144531 151.363281 255.75 151 255.804688 150.925781 C 255.851562 150.863281 256.351562 151.101562 257.007812 151.714844 C 257.609375 152.265625 258.292969 153.167969 258.765625 154.300781 C 258.75 154.0625 258.726562 153.820312 258.675781 153.566406 C 258.5625 152.953125 258.367188 152.40625 258.160156 151.960938 C 257.628906 151.425781 257.078125 150.894531 256.535156 150.386719 C 255.710938 149.613281 254.863281 148.816406 254.089844 147.953125 C 253.578125 147.382812 253.136719 146.828125 252.761719 146.273438 C 252.476562 146.359375 252.175781 146.5 251.839844 146.707031 C 251.773438 146.746094 251.6875 146.765625 251.609375 146.761719 C 251.277344 146.730469 250.914062 147.03125 250.566406 147.347656 C 251.949219 147.546875 253.03125 148.246094 253.699219 148.792969 C 254.378906 149.355469 254.707031 149.785156 254.65625 149.84375 C 254.597656 149.914062 254.160156 149.597656 253.441406 149.15625 C 252.722656 148.714844 251.699219 148.144531 250.460938 147.96875 C 249.222656 147.792969 248.050781 147.976562 247.210938 148.085938 C 247.019531 148.113281 246.84375 148.136719 246.695312 148.15625 C 245.523438 148.570312 244.40625 149.117188 243.332031 149.660156 C 242.839844 149.914062 242.339844 150.164062 241.847656 150.421875 C 241.652344 150.554688 241.449219 150.707031 241.265625 150.886719 C 240.894531 151.25 240.679688 151.683594 240.578125 152.007812 C 240.472656 152.335938 240.46875 152.574219 240.378906 152.601562 C 240.304688 152.621094 240.136719 152.386719 240.136719 151.949219 C 240.136719 151.75 240.183594 151.515625 240.269531 151.277344 C 239.824219 151.535156 239.402344 151.792969 239.253906 152.164062 C 238.792969 153.304688 238.839844 154.472656 239.027344 155.675781 C 239.089844 155.859375 239.152344 156.046875 239.234375 156.261719 C 239.296875 156.417969 239.371094 156.613281 239.441406 156.695312 C 239.46875 156.730469 239.488281 156.738281 239.488281 156.734375 C 239.492188 156.726562 239.503906 156.722656 239.527344 156.707031 C 239.609375 156.644531 239.691406 156.492188 239.769531 156.316406 C 239.84375 156.148438 239.90625 155.980469 239.960938 155.816406 C 240.0625 155.496094 240.117188 155.183594 240.152344 154.929688 C 240.171875 154.761719 240.171875 154.621094 240.164062 154.503906 C 240.148438 154.476562 240.132812 154.445312 240.117188 154.414062 C 239.824219 153.753906 239.785156 153.308594 239.863281 153.285156 C 239.949219 153.253906 240.140625 153.636719 240.511719 154.203125 C 240.699219 154.480469 240.929688 154.804688 241.21875 155.128906 C 241.359375 155.289062 241.515625 155.433594 241.671875 155.515625 C 241.832031 155.59375 242 155.609375 242.191406 155.554688 C 242.582031 155.4375 242.917969 155.109375 243.148438 154.765625 C 243.378906 154.425781 243.527344 154.0625 243.609375 153.753906 C 243.777344 153.128906 243.730469 152.695312 243.832031 152.683594 C 243.902344 152.65625 244.121094 153.085938 244.050781 153.832031 C 244.015625 154.175781 243.90625 154.585938 243.683594 154.992188 C 243.71875 155.234375 243.773438 155.539062 243.890625 155.890625 C 244.03125 156.316406 244.277344 156.789062 244.675781 157.214844 C 245.0625 157.640625 245.609375 158.019531 246.234375 158.203125 C 246.863281 158.382812 247.503906 158.316406 247.917969 158 C 248.335938 157.675781 248.546875 157.171875 248.652344 156.746094 C 248.761719 156.3125 248.78125 155.929688 248.816406 155.667969 C 248.816406 155.652344 248.824219 155.640625 248.824219 155.628906 C 248.621094 155.304688 248.464844 154.992188 248.351562 154.714844 C 248.089844 154.074219 248.042969 153.644531 248.121094 153.617188 C 248.207031 153.59375 248.402344 153.960938 248.746094 154.515625 C 248.921875 154.792969 249.136719 155.113281 249.398438 155.453125 C 249.660156 155.792969 249.964844 156.140625 250.335938 156.425781 C 250.703125 156.714844 251.105469 156.890625 251.488281 156.945312 C 251.867188 157.007812 252.207031 156.945312 252.476562 156.824219 C 252.726562 156.714844 252.890625 156.574219 253.011719 156.449219 C 253.023438 155.945312 253.15625 155.652344 253.230469 155.664062 C 253.320312 155.675781 253.339844 156.011719 253.449219 156.511719 C 253.558594 157.019531 253.785156 157.6875 254.160156 158.382812 C 254.347656 158.722656 254.546875 159.070312 254.738281 159.304688 C 254.921875 159.539062 255.140625 159.652344 255.328125 159.65625 C 255.460938 159.667969 255.570312 159.609375 255.648438 159.539062 C 255.21875 158.566406 255.214844 157.894531 255.277344 157.890625 C 255.378906 157.863281 255.542969 158.632812 256.195312 159.652344 C 256.515625 160.160156 256.972656 160.714844 257.582031 161.214844 C 257.734375 161.335938 257.894531 161.457031 258.066406 161.574219 C 258.238281 161.6875 258.410156 161.800781 258.5625 161.847656 C 258.730469 161.894531 258.796875 161.875 258.851562 161.808594 C 258.914062 161.738281 258.957031 161.542969 258.960938 161.328125 Z M 259.398438 178.820312 C 259.460938 178.773438 259.5 178.699219 259.523438 178.621094 C 259.441406 178.542969 259.359375 178.464844 259.285156 178.382812 C 258.988281 178.0625 258.714844 177.742188 258.453125 177.421875 C 258.339844 177.421875 258.230469 177.457031 258.136719 177.523438 C 258.074219 177.566406 258.015625 177.636719 257.96875 177.714844 C 258.414062 178.105469 258.878906 178.484375 259.367188 178.839844 C 259.375 178.839844 259.386719 178.828125 259.398438 178.820312 Z M 260.484375 178.082031 C 260.5 178.046875 260.527344 178.015625 260.550781 177.996094 C 260.238281 177.570312 259.929688 177.132812 259.628906 176.691406 C 259.386719 176.75 259.132812 176.925781 258.957031 177.152344 C 259.191406 177.433594 259.433594 177.71875 259.691406 177.996094 C 259.804688 178.117188 259.929688 178.234375 260.046875 178.351562 C 260.234375 178.320312 260.421875 178.207031 260.484375 178.082031 Z M 260.898438 166.925781 C 260.878906 166.550781 260.824219 166.144531 260.730469 165.714844 C 260.5625 164.960938 260.269531 164.152344 259.9375 163.289062 C 259.773438 162.847656 259.609375 162.40625 259.472656 161.976562 C 259.441406 162.050781 259.394531 162.132812 259.335938 162.207031 C 259.21875 162.351562 259.035156 162.457031 258.851562 162.484375 C 258.667969 162.515625 258.507812 162.476562 258.371094 162.433594 C 258.097656 162.339844 257.90625 162.195312 257.71875 162.070312 C 257.539062 161.9375 257.367188 161.800781 257.207031 161.660156 C 256.558594 161.082031 256.105469 160.449219 255.804688 159.875 C 255.804688 159.871094 255.800781 159.867188 255.800781 159.859375 C 255.710938 159.96875 255.570312 160.066406 255.378906 160.105469 C 255.019531 160.179688 254.589844 160.003906 254.304688 159.695312 C 254.019531 159.394531 253.820312 159.0625 253.601562 158.683594 C 253.269531 158.070312 253.085938 157.4375 253.03125 156.914062 C 252.941406 157.019531 252.835938 157.121094 252.699219 157.214844 C 252.445312 157.390625 252.078125 157.511719 251.679688 157.527344 C 252.660156 160.226562 253.679688 162.992188 255.035156 165.5625 C 255.757812 165.066406 256.753906 164.921875 257.695312 165.191406 C 258.71875 165.488281 259.460938 166.171875 259.921875 166.738281 C 260.257812 166.695312 260.609375 166.765625 260.898438 166.925781 Z M 260.855469 167.710938 C 260.859375 167.664062 260.867188 167.609375 260.871094 167.558594 C 260.652344 167.3125 260.238281 167.191406 259.875 167.277344 C 259.773438 167.300781 259.671875 167.265625 259.609375 167.183594 C 259.199219 166.660156 258.511719 165.972656 257.550781 165.699219 C 256.738281 165.464844 255.886719 165.59375 255.285156 166.03125 C 255.609375 166.613281 255.976562 167.207031 256.433594 167.710938 C 256.839844 168.15625 257.507812 168.730469 258.378906 168.933594 C 259.113281 169.101562 259.875 168.949219 260.398438 168.535156 C 260.425781 168.453125 260.488281 168.386719 260.578125 168.359375 C 260.703125 168.191406 260.804688 167.976562 260.855469 167.710938 Z M 262.488281 180.464844 C 261.925781 179.800781 261.398438 179.121094 260.878906 178.433594 C 260.773438 178.578125 260.621094 178.6875 260.457031 178.761719 C 261.066406 179.347656 261.746094 179.90625 262.488281 180.464844 Z M 263.328125 183.34375 C 263.777344 183.542969 264.234375 183.648438 264.660156 183.664062 C 263.261719 183.164062 262.171875 182.117188 261.113281 181.101562 C 260.519531 180.527344 259.90625 179.941406 259.238281 179.449219 C 259.15625 179.636719 259.015625 179.792969 258.839844 179.894531 C 259.675781 180.652344 260.535156 181.386719 261.417969 182.085938 C 262.027344 182.570312 262.636719 183.035156 263.328125 183.34375 Z M 264.5 206.84375 C 264.882812 204.851562 264.808594 202.574219 264.261719 199.800781 C 264.027344 198.605469 263.730469 197.394531 263.441406 196.226562 C 263.03125 194.601562 262.617188 192.917969 262.363281 191.226562 C 262.054688 189.148438 261.324219 187.398438 260.550781 185.550781 C 260.269531 184.875 259.976562 184.175781 259.699219 183.441406 C 259.699219 183.433594 259.699219 183.425781 259.691406 183.421875 C 258.976562 182.894531 258.277344 182.324219 257.617188 181.730469 C 258.371094 184.015625 259.296875 186.261719 260.199219 188.445312 C 260.925781 190.210938 261.675781 192.03125 262.335938 193.859375 C 264.152344 198.902344 264.847656 203.070312 264.5 206.84375 Z M 265.160156 184.203125 C 265.03125 184.21875 264.898438 184.230469 264.769531 184.230469 C 264.230469 184.230469 263.660156 184.101562 263.101562 183.855469 C 262.347656 183.523438 261.683594 183.015625 261.0625 182.523438 C 258.035156 180.109375 255.246094 177.363281 252.746094 174.371094 C 252.726562 174.371094 252.707031 174.371094 252.6875 174.371094 C 252.621094 174.371094 252.554688 174.363281 252.484375 174.359375 C 253.042969 175.054688 253.601562 175.726562 254.160156 176.382812 C 254.730469 176.71875 255.210938 177.460938 255.59375 178.046875 C 255.679688 178.179688 255.753906 178.292969 255.8125 178.367188 C 256.445312 179.226562 257.316406 180.035156 258.015625 180.679688 C 258.988281 181.582031 260.039062 182.414062 261.136719 183.152344 C 261.25 183.230469 261.363281 183.304688 261.484375 183.386719 C 262.359375 183.988281 263.359375 184.675781 264.316406 184.609375 C 264.613281 184.589844 264.945312 184.441406 265.160156 184.203125 Z M 265.457031 183.3125 C 265.460938 183.285156 265.464844 183.253906 265.46875 183.21875 C 265.4375 183.234375 265.398438 183.242188 265.367188 183.242188 C 265.335938 183.242188 265.300781 183.234375 265.269531 183.222656 C 264.734375 183.023438 264.125 182.765625 263.667969 182.28125 L 263.496094 182.09375 C 263.214844 181.789062 262.949219 181.507812 262.613281 181.257812 C 261.59375 180.535156 260.707031 179.792969 259.910156 179.015625 C 259.878906 179.070312 259.835938 179.121094 259.785156 179.167969 C 260.398438 179.636719 260.960938 180.171875 261.5 180.699219 C 262.714844 181.867188 263.863281 182.964844 265.429688 183.304688 C 265.4375 183.304688 265.445312 183.308594 265.457031 183.3125 Z M 265.5 182.519531 C 265.511719 181.976562 265.527344 181.355469 265.53125 180.6875 C 265.367188 180.550781 265.160156 180.339844 264.933594 180.050781 C 264.46875 179.460938 263.953125 178.523438 263.714844 177.382812 C 263.6875 177.253906 263.667969 177.125 263.648438 176.996094 C 263.636719 176.996094 263.625 177.003906 263.617188 177.003906 C 263.566406 177.003906 263.519531 176.992188 263.472656 176.964844 C 262.925781 176.644531 262.5625 176.109375 262.304688 175.664062 C 262.1875 175.492188 262.070312 175.308594 261.964844 175.105469 C 261.742188 174.671875 261.566406 174.179688 261.425781 173.660156 C 260.925781 172.183594 260.664062 170.628906 260.460938 169.175781 C 260.027344 169.429688 259.511719 169.5625 258.976562 169.5625 C 258.738281 169.5625 258.488281 169.535156 258.25 169.480469 C 258.003906 169.425781 257.757812 169.332031 257.511719 169.21875 C 257.5 169.238281 257.488281 169.257812 257.46875 169.277344 C 257.15625 169.527344 256.742188 169.660156 256.3125 169.679688 C 258.304688 174.03125 260.957031 178.03125 264.195312 181.558594 C 264.582031 181.980469 265 182.394531 265.5 182.519531 Z M 267.300781 188.433594 C 267.414062 188.640625 267.585938 188.824219 267.773438 188.96875 C 267.519531 187.480469 267.308594 185.984375 267.15625 184.484375 C 266.84375 184.527344 266.53125 184.523438 266.238281 184.460938 C 265.910156 185.128906 265.203125 185.601562 264.382812 185.652344 C 264.320312 185.65625 264.25 185.660156 264.1875 185.660156 C 262.9375 185.660156 261.808594 184.878906 260.886719 184.253906 C 260.773438 184.175781 260.660156 184.09375 260.550781 184.019531 C 260.539062 184.015625 260.53125 184.007812 260.527344 184 C 260.703125 184.453125 260.886719 184.90625 261.074219 185.332031 C 261.617188 186.652344 262.140625 187.917969 262.519531 189.292969 C 262.554688 189.289062 262.585938 189.28125 262.625 189.289062 C 262.824219 189.316406 263.054688 189.191406 263.21875 188.972656 C 263.390625 188.746094 263.484375 188.445312 263.570312 188.152344 C 263.617188 188.011719 263.761719 187.925781 263.90625 187.957031 C 264.140625 188.015625 264.433594 187.875 264.519531 187.667969 C 264.558594 187.574219 264.640625 187.511719 264.742188 187.5 C 264.839844 187.480469 264.9375 187.527344 265 187.605469 C 265.003906 187.609375 265.046875 187.625 265.097656 187.625 C 265.132812 187.621094 265.167969 187.601562 265.183594 187.574219 C 265.242188 187.492188 265.335938 187.445312 265.433594 187.453125 C 265.53125 187.457031 265.617188 187.511719 265.664062 187.597656 C 265.894531 188.027344 266.484375 188.324219 267.039062 188.289062 C 267.144531 188.285156 267.25 188.339844 267.300781 188.433594 Z M 267.425781 206.007812 C 267.425781 205.933594 267.417969 205.855469 267.417969 205.785156 C 267.402344 205.449219 267.390625 205.121094 267.367188 204.789062 C 267.226562 202.917969 266.976562 201.039062 266.617188 199.203125 C 266.441406 198.277344 266.234375 197.363281 266.007812 196.464844 C 265.828125 195.757812 265.714844 195.039062 265.609375 194.347656 C 265.574219 194.144531 265.542969 193.941406 265.511719 193.746094 C 265.21875 191.976562 264.859375 190.191406 264.445312 188.441406 C 264.320312 188.492188 264.179688 188.527344 264.042969 188.527344 C 263.957031 188.796875 263.847656 189.074219 263.667969 189.316406 C 263.410156 189.660156 263.027344 189.855469 262.664062 189.847656 C 262.761719 190.265625 262.847656 190.695312 262.917969 191.140625 C 263.167969 192.808594 263.585938 194.476562 263.984375 196.09375 C 264.273438 197.269531 264.578125 198.480469 264.816406 199.691406 C 265.023438 200.746094 265.160156 201.726562 265.234375 202.65625 C 265.269531 202.6875 265.300781 202.726562 265.316406 202.773438 C 265.679688 203.839844 266.203125 204.835938 266.882812 205.734375 C 266.988281 205.875 267.109375 206.027344 267.246094 206.070312 C 267.296875 206.085938 267.359375 206.082031 267.402344 206.058594 C 267.410156 206.039062 267.417969 206.019531 267.425781 206.007812 Z M 267.421875 209.792969 C 267.589844 208.953125 267.636719 208.15625 267.542969 207.484375 C 267.503906 207.203125 267.476562 206.914062 267.457031 206.625 C 267.410156 206.632812 267.359375 206.640625 267.308594 206.640625 C 267.226562 206.640625 267.140625 206.628906 267.066406 206.605469 C 266.78125 206.503906 266.585938 206.277344 266.429688 206.070312 C 265.988281 205.484375 265.613281 204.855469 265.300781 204.191406 C 265.300781 205.59375 265.128906 206.863281 264.789062 208.035156 C 265.753906 208.496094 266.636719 209.089844 267.421875 209.792969 Z M 267.941406 183.054688 C 267.980469 182.957031 267.957031 182.757812 267.929688 182.535156 C 267.917969 182.402344 267.902344 182.257812 267.890625 182.097656 C 267.804688 180.65625 267.683594 178.753906 267.511719 176.847656 C 267.15625 172.910156 266.660156 169.722656 265.9375 166.816406 C 264.558594 161.226562 262.296875 156.617188 259.21875 153.089844 C 259.25 153.210938 259.277344 153.328125 259.296875 153.453125 C 259.429688 154.125 259.394531 154.777344 259.292969 155.300781 L 259.289062 155.332031 C 259.277344 155.40625 259.226562 155.464844 259.164062 155.5 C 259.253906 155.867188 259.316406 156.222656 259.351562 156.558594 C 259.410156 157.167969 259.382812 157.710938 259.332031 158.15625 L 259.328125 158.183594 C 259.324219 158.230469 259.296875 158.269531 259.265625 158.308594 C 259.414062 158.875 259.523438 159.5 259.570312 160.167969 C 259.609375 160.320312 259.648438 160.472656 259.699219 160.632812 C 259.90625 161.394531 260.199219 162.199219 260.527344 163.066406 C 260.859375 163.929688 261.152344 164.785156 261.300781 165.597656 C 261.441406 166.414062 261.476562 167.179688 261.285156 167.828125 C 261.203125 168.097656 261.074219 168.332031 260.917969 168.511719 C 260.925781 168.535156 260.9375 168.554688 260.941406 168.578125 C 260.945312 168.589844 260.945312 168.605469 260.945312 168.617188 C 261.148438 169.195312 261.464844 171.011719 261.9375 173.121094 C 262.046875 173.570312 262.164062 173.992188 262.304688 174.382812 C 262.445312 174.710938 262.59375 175.035156 262.769531 175.34375 C 262.964844 175.683594 263.226562 176.078125 263.585938 176.351562 C 263.546875 175.621094 263.628906 174.957031 263.753906 174.457031 C 263.941406 173.730469 264.1875 173.328125 264.269531 173.351562 C 264.351562 173.382812 264.261719 173.824219 264.195312 174.535156 C 264.128906 175.238281 264.113281 176.214844 264.335938 177.253906 C 264.550781 178.300781 264.960938 179.1875 265.304688 179.800781 C 265.386719 179.953125 265.464844 180.082031 265.53125 180.203125 C 265.535156 179.929688 265.535156 179.65625 265.539062 179.375 C 265.535156 176.371094 265.535156 173.917969 265.71875 173.910156 C 265.882812 173.910156 266.167969 176.347656 266.167969 179.375 C 266.160156 180.902344 266.082031 182.257812 265.910156 183.273438 C 265.910156 183.277344 265.910156 183.277344 265.910156 183.28125 C 265.988281 183.28125 266.066406 183.296875 266.140625 183.335938 C 266.550781 183.539062 267.199219 183.5 267.710938 183.238281 C 267.800781 183.191406 267.917969 183.128906 267.941406 183.054688 Z M 270.589844 206.140625 C 270.253906 204.726562 269.984375 203.351562 269.757812 202.066406 C 269.726562 201.910156 269.707031 201.75 269.679688 201.585938 C 269.636719 201.304688 269.597656 201.015625 269.527344 200.746094 C 269.492188 200.609375 269.449219 200.480469 269.398438 200.351562 C 269.328125 200.164062 269.261719 199.96875 269.222656 199.742188 C 269.042969 198.800781 268.855469 197.859375 268.660156 196.917969 C 268.273438 195.042969 267.859375 193.148438 267.421875 191.289062 C 267.253906 190.570312 267.082031 189.851562 266.902344 189.136719 C 266.828125 189.070312 266.738281 188.988281 266.707031 188.84375 C 266.707031 188.839844 266.707031 188.839844 266.707031 188.835938 C 266.179688 188.773438 265.667969 188.511719 265.355469 188.132812 C 265.277344 188.164062 265.199219 188.183594 265.121094 188.183594 C 265.058594 188.1875 265.011719 188.175781 264.960938 188.164062 C 265.390625 189.972656 265.761719 191.816406 266.0625 193.652344 C 266.097656 193.855469 266.128906 194.058594 266.160156 194.261719 C 266.273438 194.972656 266.378906 195.644531 266.550781 196.328125 C 266.78125 197.230469 266.988281 198.164062 267.171875 199.089844 C 267.53125 200.953125 267.785156 202.855469 267.929688 204.75 C 267.949219 205.035156 267.957031 205.324219 267.96875 205.613281 C 268 205.640625 268.023438 205.675781 268.039062 205.714844 C 268.253906 206.257812 268.601562 206.742188 269.054688 207.113281 C 269.316406 207.328125 269.542969 207.421875 269.730469 207.410156 C 269.980469 207.394531 270.191406 207.191406 270.300781 207.003906 C 270.453125 206.753906 270.523438 206.441406 270.589844 206.140625 Z M 271.339844 214.257812 C 271.652344 213.398438 272.0625 212.714844 272.550781 212.199219 C 271.839844 210.542969 271.285156 208.832031 270.847656 207.164062 C 270.828125 207.207031 270.808594 207.25 270.78125 207.289062 C 270.542969 207.691406 270.164062 207.949219 269.769531 207.972656 C 269.746094 207.972656 269.71875 207.972656 269.695312 207.972656 C 269.375 207.972656 269.046875 207.835938 268.699219 207.546875 C 268.449219 207.34375 268.234375 207.113281 268.042969 206.855469 C 268.058594 207.039062 268.074219 207.226562 268.097656 207.402344 C 268.214844 208.234375 268.148438 209.21875 267.902344 210.253906 C 269.328125 211.691406 270.367188 213.507812 270.867188 215.507812 C 270.976562 215.21875 271.085938 214.933594 271.195312 214.628906 Z M 271.21875 206.324219 C 271.449219 205.796875 271.542969 205.210938 271.496094 204.632812 C 270.773438 202.742188 270.308594 200.765625 269.859375 198.84375 C 269.160156 195.847656 268.449219 192.789062 267.894531 189.691406 C 267.78125 189.640625 267.679688 189.578125 267.570312 189.511719 C 267.703125 190.058594 267.835938 190.605469 267.96875 191.160156 C 268.40625 193.023438 268.828125 194.921875 269.210938 196.804688 C 269.40625 197.746094 269.59375 198.691406 269.773438 199.636719 C 269.804688 199.816406 269.867188 199.988281 269.929688 200.164062 C 269.976562 200.308594 270.03125 200.449219 270.070312 200.601562 C 270.144531 200.902344 270.191406 201.210938 270.234375 201.507812 C 270.261719 201.664062 270.28125 201.816406 270.308594 201.96875 C 270.554688 203.339844 270.847656 204.816406 271.21875 206.324219 Z M 273.609375 211.421875 C 274.289062 211.105469 275.019531 211.042969 275.722656 211.097656 C 274.207031 209.578125 272.941406 207.828125 272.125 206.128906 C 272.074219 206.019531 272.03125 205.910156 271.980469 205.796875 C 271.90625 206.140625 271.785156 206.472656 271.621094 206.78125 C 271.578125 206.863281 271.503906 206.917969 271.410156 206.933594 C 271.394531 206.9375 271.382812 206.933594 271.371094 206.9375 C 271.789062 208.550781 272.316406 210.199219 272.992188 211.804688 C 273.183594 211.652344 273.394531 211.527344 273.609375 211.421875 Z M 277.71875 211.515625 C 277.90625 211.671875 277.957031 211.929688 277.847656 212.148438 C 277.746094 212.367188 277.5 212.476562 277.265625 212.425781 C 276.046875 212.144531 274.960938 211.949219 274.054688 212.375 C 273.328125 212.714844 272.746094 213.46875 272.316406 214.617188 L 272.179688 214.988281 C 271.847656 215.894531 271.558594 216.675781 271.113281 217.574219 C 271.023438 217.75 270.839844 217.863281 270.644531 217.863281 C 270.613281 217.863281 270.582031 217.859375 270.546875 217.851562 C 270.316406 217.804688 270.144531 217.617188 270.125 217.386719 C 269.792969 213.476562 267.238281 210.058594 263.613281 208.664062 C 263.378906 208.574219 263.246094 208.335938 263.289062 208.09375 C 263.945312 204.125 263.332031 199.71875 261.351562 194.214844 C 260.703125 192.410156 259.953125 190.601562 259.230469 188.847656 C 258.144531 186.21875 257.023438 183.5 256.191406 180.710938 C 256.164062 180.605469 256.164062 180.496094 256.199219 180.394531 C 255.765625 179.957031 255.335938 179.492188 254.96875 178.992188 C 254.902344 178.902344 254.8125 178.773438 254.71875 178.617188 C 254.136719 177.726562 253.742188 177.265625 253.539062 177.25 C 252.890625 177.355469 252.238281 177.328125 251.617188 177.1875 C 251.894531 177.746094 251.910156 178.476562 251.628906 179.109375 C 251.566406 179.25 251.433594 179.335938 251.289062 179.335938 C 251.273438 179.335938 251.253906 179.335938 251.234375 179.332031 C 251.070312 179.308594 250.9375 179.179688 250.917969 179.015625 C 250.890625 178.816406 250.769531 178.625 250.605469 178.511719 C 250.539062 178.464844 250.398438 178.457031 250.253906 178.449219 C 250.117188 178.4375 249.964844 178.429688 249.808594 178.382812 C 249.28125 178.234375 248.859375 177.878906 248.488281 177.566406 L 248.253906 177.363281 C 247.957031 177.113281 247.648438 176.855469 247.332031 176.800781 C 246.269531 177.402344 244.90625 177.589844 243.722656 177.308594 C 243.695312 177.324219 243.679688 177.347656 243.6875 177.382812 C 243.714844 177.519531 243.664062 177.664062 243.546875 177.753906 C 243.433594 177.835938 243.285156 177.855469 243.152344 177.789062 C 242.921875 177.679688 242.75 177.464844 242.675781 177.195312 C 242.582031 176.878906 242.628906 176.523438 242.796875 176.242188 C 243.078125 175.78125 243.582031 175.566406 243.9375 175.441406 C 244.5625 175.226562 245.214844 175.117188 245.84375 175.011719 L 246.207031 174.949219 C 246.417969 174.910156 246.601562 174.871094 246.730469 174.792969 C 246.769531 174.765625 246.804688 174.734375 246.828125 174.695312 C 244.9375 173.984375 243.171875 172.9375 241.785156 171.707031 C 239.671875 169.824219 237.929688 167.210938 236.75 164.164062 C 235.796875 161.699219 235.167969 158.960938 234.785156 155.554688 C 233.839844 154.640625 233.328125 153.53125 233.261719 152.253906 C 233.078125 148.8125 234 145.328125 235.851562 142.417969 C 235.84375 141.957031 235.984375 141.46875 236.230469 141.058594 C 236.164062 141.007812 236.097656 140.960938 236.035156 140.910156 C 235.839844 140.761719 235.640625 140.609375 235.476562 140.527344 C 235.242188 140.414062 235.128906 140.144531 235.207031 139.898438 C 235.695312 138.375 236.894531 137.136719 238.390625 136.589844 C 238.507812 135.542969 239.164062 134.480469 240.019531 134.007812 C 240.84375 133.546875 241.902344 133.367188 243.078125 133.496094 C 244.796875 133.675781 246.417969 134.429688 247.84375 135.097656 C 248.921875 135.589844 250.261719 136.21875 251.097656 137.355469 C 251.855469 138.386719 252.074219 139.671875 252.1875 140.675781 C 252.226562 141.046875 252.246094 141.390625 252.257812 141.71875 C 252.300781 142.503906 252.332031 143.175781 252.664062 143.953125 C 253.132812 145.042969 253.847656 146.121094 254.867188 147.25 C 255.609375 148.082031 256.445312 148.863281 257.253906 149.617188 C 257.933594 150.257812 258.628906 150.917969 259.289062 151.609375 C 262.847656 155.363281 265.429688 160.390625 266.957031 166.566406 C 267.6875 169.527344 268.199219 172.761719 268.558594 176.753906 C 268.726562 178.671875 268.851562 180.585938 268.9375 182.035156 C 268.945312 182.175781 268.960938 182.300781 268.972656 182.417969 C 269.011719 182.765625 269.050781 183.097656 268.921875 183.433594 C 268.800781 183.742188 268.558594 183.988281 268.1875 184.175781 C 268.179688 184.175781 268.179688 184.175781 268.175781 184.175781 C 268.652344 189.050781 269.785156 193.910156 270.882812 198.605469 C 271.4375 200.988281 272.011719 203.453125 273.074219 205.675781 C 274.050781 207.726562 275.742188 209.855469 277.71875 211.515625 " fill-opacity="1" fill-rule="nonzero"/></g><path fill="#ffffff" d="M 248.234375 140.777344 C 248.257812 140.621094 248.277344 140.386719 248.234375 140.226562 C 248.21875 140.175781 248.125 140.09375 248.058594 140.035156 C 247.769531 139.78125 247.378906 139.714844 247.097656 139.710938 C 247.066406 139.707031 247.039062 139.707031 247.011719 139.707031 C 246.726562 139.707031 246.511719 139.761719 246.363281 139.871094 C 246.035156 140.101562 245.972656 140.59375 245.972656 140.863281 C 245.964844 141.003906 245.972656 141.179688 246.046875 141.308594 C 246.148438 141.492188 246.398438 141.59375 246.667969 141.695312 C 246.84375 141.769531 247.027344 141.835938 247.214844 141.867188 C 247.335938 141.882812 247.511719 141.890625 247.664062 141.820312 C 247.796875 141.753906 247.917969 141.617188 248.027344 141.417969 C 248.132812 141.222656 248.203125 141.007812 248.234375 140.777344 Z M 248.773438 140.074219 C 248.847656 140.335938 248.824219 140.628906 248.789062 140.863281 C 248.746094 141.148438 248.652344 141.425781 248.519531 141.6875 C 248.359375 141.988281 248.152344 142.207031 247.910156 142.320312 C 247.75 142.398438 247.566406 142.4375 247.371094 142.4375 C 247.296875 142.4375 247.210938 142.433594 247.128906 142.417969 C 246.890625 142.382812 246.667969 142.296875 246.46875 142.222656 C 246.1875 142.121094 245.769531 141.957031 245.554688 141.585938 C 245.417969 141.335938 245.40625 141.066406 245.40625 140.851562 C 245.425781 140.203125 245.644531 139.695312 246.03125 139.414062 C 246.308594 139.21875 246.664062 139.132812 247.121094 139.148438 C 247.488281 139.160156 248.015625 139.25 248.410156 139.597656 C 248.546875 139.714844 248.714844 139.863281 248.773438 140.074219 " fill-opacity="1" fill-rule="nonzero"/><path fill="#ffffff" d="M 247.027344 140.261719 C 247.441406 140.132812 247.964844 140.351562 247.863281 140.855469 C 247.824219 141.066406 247.65625 141.25 247.449219 141.324219 C 247.242188 141.398438 247.007812 141.371094 246.816406 141.269531 C 246.6875 141.203125 246.574219 141.097656 246.539062 140.960938 C 246.507812 140.84375 246.542969 140.714844 246.601562 140.613281 C 246.695312 140.445312 246.851562 140.320312 247.027344 140.261719 " fill-opacity="1" fill-rule="nonzero"/><path fill="#ffffff" d="M 247.59375 146.722656 C 247.609375 146.808594 247.34375 146.960938 246.878906 147.132812 C 246.410156 147.292969 245.722656 147.476562 244.921875 147.414062 C 244.566406 147.382812 244.234375 147.296875 243.945312 147.175781 C 243.863281 147.183594 243.773438 147.191406 243.675781 147.191406 C 243.230469 147.203125 242.59375 147.097656 241.964844 146.800781 C 241.347656 146.5 240.84375 146.105469 240.585938 145.679688 C 240.460938 145.464844 240.414062 145.253906 240.421875 145.117188 C 240.433594 144.976562 240.484375 144.902344 240.523438 144.910156 C 240.617188 144.910156 240.667969 145.15625 240.941406 145.410156 C 241.203125 145.664062 241.691406 145.964844 242.234375 146.226562 C 242.511719 146.367188 242.785156 146.464844 243.035156 146.546875 C 242.695312 146.164062 242.652344 145.835938 242.71875 145.808594 C 242.804688 145.761719 242.988281 146 243.359375 146.246094 C 243.722656 146.496094 244.296875 146.730469 244.972656 146.785156 C 245.65625 146.839844 246.300781 146.742188 246.777344 146.699219 C 247.257812 146.644531 247.566406 146.636719 247.59375 146.722656 " fill-opacity="1" fill-rule="nonzero"/><path fill="#ffffff" d="M 240.421875 138.359375 C 240.757812 138.367188 240.894531 138.574219 240.859375 138.738281 C 240.820312 138.914062 240.582031 138.988281 240.433594 138.992188 C 240.359375 138.992188 240.296875 138.972656 240.234375 138.945312 C 240.164062 138.914062 240.082031 138.882812 240.023438 138.824219 C 239.960938 138.761719 239.945312 138.65625 240.019531 138.550781 C 240.09375 138.445312 240.246094 138.363281 240.421875 138.359375 " fill-opacity="1" fill-rule="nonzero"/><g fill="#ffffff" fill-opacity="1"><g transform="translate(68.931541, 175.941243)"><g><path d="M 5.375 -7.09375 C 5.0625 -6.945312 4.71875 -6.828125 4.34375 -6.734375 C 4.71875 -6.648438 5.0625 -6.53125 5.375 -6.375 L 9.015625 -4.515625 C 9.160156 -4.441406 9.265625 -4.347656 9.328125 -4.234375 C 9.398438 -4.117188 9.4375 -3.992188 9.4375 -3.859375 L 9.4375 -2.09375 L 1.515625 -6.234375 L 1.515625 -7.234375 L 9.4375 -11.375 L 9.4375 -9.609375 C 9.4375 -9.472656 9.398438 -9.347656 9.328125 -9.234375 C 9.265625 -9.128906 9.160156 -9.035156 9.015625 -8.953125 Z M 5.375 -7.09375 "/></g></g></g><g fill="#ffffff" fill-opacity="1"><g transform="translate(80.526968, 175.941243)"><g><path d="M 2.9375 0.03125 C 2.820312 0.332031 2.640625 0.5625 2.390625 0.71875 C 2.140625 0.875 1.882812 0.953125 1.625 0.953125 L 0.578125 0.953125 L 6.421875 -13.984375 C 6.523438 -14.265625 6.6875 -14.476562 6.90625 -14.625 C 7.125 -14.78125 7.382812 -14.859375 7.6875 -14.859375 L 8.734375 -14.859375 Z M 2.9375 0.03125 "/></g></g></g><g fill="#ffffff" fill-opacity="1"><g transform="translate(89.843294, 175.941243)"><g><path d="M 13.796875 -14.453125 L 13.796875 0 L 12.421875 0 C 12.203125 0 12.019531 -0.03125 11.875 -0.09375 C 11.738281 -0.164062 11.601562 -0.285156 11.46875 -0.453125 L 3.921875 -10.09375 C 3.960938 -9.65625 3.984375 -9.25 3.984375 -8.875 L 3.984375 0 L 1.609375 0 L 1.609375 -14.453125 L 3.015625 -14.453125 C 3.128906 -14.453125 3.226562 -14.445312 3.3125 -14.4375 C 3.394531 -14.4375 3.46875 -14.421875 3.53125 -14.390625 C 3.59375 -14.359375 3.65625 -14.3125 3.71875 -14.25 C 3.78125 -14.195312 3.847656 -14.125 3.921875 -14.03125 L 11.5 -4.34375 C 11.476562 -4.582031 11.460938 -4.8125 11.453125 -5.03125 C 11.441406 -5.257812 11.4375 -5.472656 11.4375 -5.671875 L 11.4375 -14.453125 Z M 13.796875 -14.453125 "/></g></g></g><g fill="#ffffff" fill-opacity="1"><g transform="translate(105.247212, 175.941243)"><g><path d="M 9.25 -5.453125 L 7.484375 -10.265625 C 7.398438 -10.484375 7.3125 -10.738281 7.21875 -11.03125 C 7.125 -11.320312 7.03125 -11.640625 6.9375 -11.984375 C 6.851562 -11.640625 6.765625 -11.316406 6.671875 -11.015625 C 6.578125 -10.722656 6.488281 -10.46875 6.40625 -10.25 L 4.65625 -5.453125 Z M 14 0 L 11.921875 0 C 11.679688 0 11.488281 -0.0546875 11.34375 -0.171875 C 11.195312 -0.285156 11.085938 -0.429688 11.015625 -0.609375 L 9.9375 -3.5625 L 3.953125 -3.5625 L 2.875 -0.609375 C 2.820312 -0.453125 2.71875 -0.3125 2.5625 -0.1875 C 2.40625 -0.0625 2.210938 0 1.984375 0 L -0.109375 0 L 5.578125 -14.453125 L 8.3125 -14.453125 Z M 14 0 "/></g></g></g><g fill="#ffffff" fill-opacity="1"><g transform="translate(119.131732, 175.941243)"><g><path d="M 11.703125 -12.25 L 7.34375 -12.25 L 7.34375 0 L 4.65625 0 L 4.65625 -12.25 L 0.296875 -12.25 L 0.296875 -14.453125 L 11.703125 -14.453125 Z M 11.703125 -12.25 "/></g></g></g><g fill="#ffffff" fill-opacity="1"><g transform="translate(131.127005, 175.941243)"><g><path d="M 4.3125 0 L 1.609375 0 L 1.609375 -14.453125 L 4.3125 -14.453125 Z M 4.3125 0 "/></g></g></g><g fill="#ffffff" fill-opacity="1"><g transform="translate(137.054667, 175.941243)"><g><path d="M 14 -14.453125 L 8.15625 0 L 5.734375 0 L -0.109375 -14.453125 L 2.046875 -14.453125 C 2.285156 -14.453125 2.476562 -14.394531 2.625 -14.28125 C 2.769531 -14.175781 2.878906 -14.03125 2.953125 -13.84375 L 6.359375 -5.03125 C 6.472656 -4.738281 6.582031 -4.421875 6.6875 -4.078125 C 6.789062 -3.734375 6.890625 -3.378906 6.984375 -3.015625 C 7.054688 -3.378906 7.140625 -3.734375 7.234375 -4.078125 C 7.328125 -4.421875 7.429688 -4.738281 7.546875 -5.03125 L 10.9375 -13.84375 C 10.988281 -14 11.09375 -14.140625 11.25 -14.265625 C 11.40625 -14.390625 11.597656 -14.453125 11.828125 -14.453125 Z M 14 -14.453125 "/></g></g></g><g fill="#ffffff" fill-opacity="1"><g transform="translate(150.939187, 175.941243)"><g><path d="M 9.25 -5.453125 L 7.484375 -10.265625 C 7.398438 -10.484375 7.3125 -10.738281 7.21875 -11.03125 C 7.125 -11.320312 7.03125 -11.640625 6.9375 -11.984375 C 6.851562 -11.640625 6.765625 -11.316406 6.671875 -11.015625 C 6.578125 -10.722656 6.488281 -10.46875 6.40625 -10.25 L 4.65625 -5.453125 Z M 14 0 L 11.921875 0 C 11.679688 0 11.488281 -0.0546875 11.34375 -0.171875 C 11.195312 -0.285156 11.085938 -0.429688 11.015625 -0.609375 L 9.9375 -3.5625 L 3.953125 -3.5625 L 2.875 -0.609375 C 2.820312 -0.453125 2.71875 -0.3125 2.5625 -0.1875 C 2.40625 -0.0625 2.210938 0 1.984375 0 L -0.109375 0 L 5.578125 -14.453125 L 8.3125 -14.453125 Z M 14 0 "/></g></g></g><g fill="#ffffff" fill-opacity="1"><g transform="translate(164.826066, 175.941243)"><g/></g></g><g fill="#ffffff" fill-opacity="1"><g transform="translate(89.820094, 192.674987)"><g><path d="M 4.3125 0 L 1.609375 0 L 1.609375 -14.453125 L 4.3125 -14.453125 Z M 4.3125 0 "/></g></g></g><g fill="#ffffff" fill-opacity="1"><g transform="translate(95.747756, 192.674987)"><g><path d="M 13.796875 -14.453125 L 13.796875 0 L 12.421875 0 C 12.203125 0 12.019531 -0.03125 11.875 -0.09375 C 11.738281 -0.164062 11.601562 -0.285156 11.46875 -0.453125 L 3.921875 -10.09375 C 3.960938 -9.65625 3.984375 -9.25 3.984375 -8.875 L 3.984375 0 L 1.609375 0 L 1.609375 -14.453125 L 3.015625 -14.453125 C 3.128906 -14.453125 3.226562 -14.445312 3.3125 -14.4375 C 3.394531 -14.4375 3.46875 -14.421875 3.53125 -14.390625 C 3.59375 -14.359375 3.65625 -14.3125 3.71875 -14.25 C 3.78125 -14.195312 3.847656 -14.125 3.921875 -14.03125 L 11.5 -4.34375 C 11.476562 -4.582031 11.460938 -4.8125 11.453125 -5.03125 C 11.441406 -5.257812 11.4375 -5.472656 11.4375 -5.671875 L 11.4375 -14.453125 Z M 13.796875 -14.453125 "/></g></g></g><g fill="#ffffff" fill-opacity="1"><g transform="translate(111.151674, 192.674987)"><g><path d="M 13.796875 -14.453125 L 13.796875 0 L 12.421875 0 C 12.203125 0 12.019531 -0.03125 11.875 -0.09375 C 11.738281 -0.164062 11.601562 -0.285156 11.46875 -0.453125 L 3.921875 -10.09375 C 3.960938 -9.65625 3.984375 -9.25 3.984375 -8.875 L 3.984375 0 L 1.609375 0 L 1.609375 -14.453125 L 3.015625 -14.453125 C 3.128906 -14.453125 3.226562 -14.445312 3.3125 -14.4375 C 3.394531 -14.4375 3.46875 -14.421875 3.53125 -14.390625 C 3.59375 -14.359375 3.65625 -14.3125 3.71875 -14.25 C 3.78125 -14.195312 3.847656 -14.125 3.921875 -14.03125 L 11.5 -4.34375 C 11.476562 -4.582031 11.460938 -4.8125 11.453125 -5.03125 C 11.441406 -5.257812 11.4375 -5.472656 11.4375 -5.671875 L 11.4375 -14.453125 Z M 13.796875 -14.453125 "/></g></g></g><g fill="#ffffff" fill-opacity="1"><g transform="translate(126.555592, 192.674987)"><g><path d="M 15.40625 -7.234375 C 15.40625 -6.171875 15.226562 -5.1875 14.875 -4.28125 C 14.519531 -3.382812 14.023438 -2.601562 13.390625 -1.9375 C 12.753906 -1.28125 11.984375 -0.765625 11.078125 -0.390625 C 10.179688 -0.0234375 9.179688 0.15625 8.078125 0.15625 C 6.984375 0.15625 5.984375 -0.0234375 5.078125 -0.390625 C 4.179688 -0.765625 3.410156 -1.28125 2.765625 -1.9375 C 2.128906 -2.601562 1.632812 -3.382812 1.28125 -4.28125 C 0.925781 -5.1875 0.75 -6.171875 0.75 -7.234375 C 0.75 -8.285156 0.925781 -9.265625 1.28125 -10.171875 C 1.632812 -11.078125 2.128906 -11.859375 2.765625 -12.515625 C 3.410156 -13.179688 4.179688 -13.695312 5.078125 -14.0625 C 5.984375 -14.4375 6.984375 -14.625 8.078125 -14.625 C 8.816406 -14.625 9.507812 -14.535156 10.15625 -14.359375 C 10.800781 -14.191406 11.390625 -13.953125 11.921875 -13.640625 C 12.460938 -13.335938 12.945312 -12.960938 13.375 -12.515625 C 13.8125 -12.066406 14.179688 -11.566406 14.484375 -11.015625 C 14.785156 -10.472656 15.015625 -9.882812 15.171875 -9.25 C 15.328125 -8.613281 15.40625 -7.941406 15.40625 -7.234375 Z M 12.65625 -7.234375 C 12.65625 -8.023438 12.546875 -8.734375 12.328125 -9.359375 C 12.117188 -9.992188 11.816406 -10.53125 11.421875 -10.96875 C 11.023438 -11.40625 10.546875 -11.738281 9.984375 -11.96875 C 9.421875 -12.207031 8.785156 -12.328125 8.078125 -12.328125 C 7.367188 -12.328125 6.734375 -12.207031 6.171875 -11.96875 C 5.609375 -11.738281 5.128906 -11.40625 4.734375 -10.96875 C 4.335938 -10.53125 4.03125 -9.992188 3.8125 -9.359375 C 3.601562 -8.734375 3.5 -8.023438 3.5 -7.234375 C 3.5 -6.441406 3.601562 -5.726562 3.8125 -5.09375 C 4.03125 -4.46875 4.335938 -3.9375 4.734375 -3.5 C 5.128906 -3.0625 5.609375 -2.722656 6.171875 -2.484375 C 6.734375 -2.253906 7.367188 -2.140625 8.078125 -2.140625 C 8.785156 -2.140625 9.421875 -2.253906 9.984375 -2.484375 C 10.546875 -2.722656 11.023438 -3.0625 11.421875 -3.5 C 11.816406 -3.9375 12.117188 -4.46875 12.328125 -5.09375 C 12.546875 -5.726562 12.65625 -6.441406 12.65625 -7.234375 Z M 12.65625 -7.234375 "/></g></g></g><g fill="#ffffff" fill-opacity="1"><g transform="translate(142.709224, 192.674987)"><g><path d="M 14 -14.453125 L 8.15625 0 L 5.734375 0 L -0.109375 -14.453125 L 2.046875 -14.453125 C 2.285156 -14.453125 2.476562 -14.394531 2.625 -14.28125 C 2.769531 -14.175781 2.878906 -14.03125 2.953125 -13.84375 L 6.359375 -5.03125 C 6.472656 -4.738281 6.582031 -4.421875 6.6875 -4.078125 C 6.789062 -3.734375 6.890625 -3.378906 6.984375 -3.015625 C 7.054688 -3.378906 7.140625 -3.734375 7.234375 -4.078125 C 7.328125 -4.421875 7.429688 -4.738281 7.546875 -5.03125 L 10.9375 -13.84375 C 10.988281 -14 11.09375 -14.140625 11.25 -14.265625 C 11.40625 -14.390625 11.597656 -14.453125 11.828125 -14.453125 Z M 14 -14.453125 "/></g></g></g><g fill="#ffffff" fill-opacity="1"><g transform="translate(156.593744, 192.674987)"><g><path d="M 9.25 -5.453125 L 7.484375 -10.265625 C 7.398438 -10.484375 7.3125 -10.738281 7.21875 -11.03125 C 7.125 -11.320312 7.03125 -11.640625 6.9375 -11.984375 C 6.851562 -11.640625 6.765625 -11.316406 6.671875 -11.015625 C 6.578125 -10.722656 6.488281 -10.46875 6.40625 -10.25 L 4.65625 -5.453125 Z M 14 0 L 11.921875 0 C 11.679688 0 11.488281 -0.0546875 11.34375 -0.171875 C 11.195312 -0.285156 11.085938 -0.429688 11.015625 -0.609375 L 9.9375 -3.5625 L 3.953125 -3.5625 L 2.875 -0.609375 C 2.820312 -0.453125 2.71875 -0.3125 2.5625 -0.1875 C 2.40625 -0.0625 2.210938 0 1.984375 0 L -0.109375 0 L 5.578125 -14.453125 L 8.3125 -14.453125 Z M 14 0 "/></g></g></g><g fill="#ffffff" fill-opacity="1"><g transform="translate(170.478265, 192.674987)"><g><path d="M 11.703125 -12.25 L 7.34375 -12.25 L 7.34375 0 L 4.65625 0 L 4.65625 -12.25 L 0.296875 -12.25 L 0.296875 -14.453125 L 11.703125 -14.453125 Z M 11.703125 -12.25 "/></g></g></g><g fill="#ffffff" fill-opacity="1"><g transform="translate(182.473537, 192.674987)"><g><path d="M 4.3125 0 L 1.609375 0 L 1.609375 -14.453125 L 4.3125 -14.453125 Z M 4.3125 0 "/></g></g></g><g fill="#ffffff" fill-opacity="1"><g transform="translate(188.401199, 192.674987)"><g><path d="M 15.40625 -7.234375 C 15.40625 -6.171875 15.226562 -5.1875 14.875 -4.28125 C 14.519531 -3.382812 14.023438 -2.601562 13.390625 -1.9375 C 12.753906 -1.28125 11.984375 -0.765625 11.078125 -0.390625 C 10.179688 -0.0234375 9.179688 0.15625 8.078125 0.15625 C 6.984375 0.15625 5.984375 -0.0234375 5.078125 -0.390625 C 4.179688 -0.765625 3.410156 -1.28125 2.765625 -1.9375 C 2.128906 -2.601562 1.632812 -3.382812 1.28125 -4.28125 C 0.925781 -5.1875 0.75 -6.171875 0.75 -7.234375 C 0.75 -8.285156 0.925781 -9.265625 1.28125 -10.171875 C 1.632812 -11.078125 2.128906 -11.859375 2.765625 -12.515625 C 3.410156 -13.179688 4.179688 -13.695312 5.078125 -14.0625 C 5.984375 -14.4375 6.984375 -14.625 8.078125 -14.625 C 8.816406 -14.625 9.507812 -14.535156 10.15625 -14.359375 C 10.800781 -14.191406 11.390625 -13.953125 11.921875 -13.640625 C 12.460938 -13.335938 12.945312 -12.960938 13.375 -12.515625 C 13.8125 -12.066406 14.179688 -11.566406 14.484375 -11.015625 C 14.785156 -10.472656 15.015625 -9.882812 15.171875 -9.25 C 15.328125 -8.613281 15.40625 -7.941406 15.40625 -7.234375 Z M 12.65625 -7.234375 C 12.65625 -8.023438 12.546875 -8.734375 12.328125 -9.359375 C 12.117188 -9.992188 11.816406 -10.53125 11.421875 -10.96875 C 11.023438 -11.40625 10.546875 -11.738281 9.984375 -11.96875 C 9.421875 -12.207031 8.785156 -12.328125 8.078125 -12.328125 C 7.367188 -12.328125 6.734375 -12.207031 6.171875 -11.96875 C 5.609375 -11.738281 5.128906 -11.40625 4.734375 -10.96875 C 4.335938 -10.53125 4.03125 -9.992188 3.8125 -9.359375 C 3.601562 -8.734375 3.5 -8.023438 3.5 -7.234375 C 3.5 -6.441406 3.601562 -5.726562 3.8125 -5.09375 C 4.03125 -4.46875 4.335938 -3.9375 4.734375 -3.5 C 5.128906 -3.0625 5.609375 -2.722656 6.171875 -2.484375 C 6.734375 -2.253906 7.367188 -2.140625 8.078125 -2.140625 C 8.785156 -2.140625 9.421875 -2.253906 9.984375 -2.484375 C 10.546875 -2.722656 11.023438 -3.0625 11.421875 -3.5 C 11.816406 -3.9375 12.117188 -4.46875 12.328125 -5.09375 C 12.546875 -5.726562 12.65625 -6.441406 12.65625 -7.234375 Z M 12.65625 -7.234375 "/></g></g></g><g fill="#ffffff" fill-opacity="1"><g transform="translate(204.55483, 192.674987)"><g><path d="M 13.796875 -14.453125 L 13.796875 0 L 12.421875 0 C 12.203125 0 12.019531 -0.03125 11.875 -0.09375 C 11.738281 -0.164062 11.601562 -0.285156 11.46875 -0.453125 L 3.921875 -10.09375 C 3.960938 -9.65625 3.984375 -9.25 3.984375 -8.875 L 3.984375 0 L 1.609375 0 L 1.609375 -14.453125 L 3.015625 -14.453125 C 3.128906 -14.453125 3.226562 -14.445312 3.3125 -14.4375 C 3.394531 -14.4375 3.46875 -14.421875 3.53125 -14.390625 C 3.59375 -14.359375 3.65625 -14.3125 3.71875 -14.25 C 3.78125 -14.195312 3.847656 -14.125 3.921875 -14.03125 L 11.5 -4.34375 C 11.476562 -4.582031 11.460938 -4.8125 11.453125 -5.03125 C 11.441406 -5.257812 11.4375 -5.472656 11.4375 -5.671875 L 11.4375 -14.453125 Z M 13.796875 -14.453125 "/></g></g></g><g fill="#ffffff" fill-opacity="1"><g transform="translate(219.958749, 192.674987)"><g><path d="M 9.3125 -11.828125 C 9.226562 -11.691406 9.140625 -11.59375 9.046875 -11.53125 C 8.960938 -11.46875 8.851562 -11.4375 8.71875 -11.4375 C 8.582031 -11.4375 8.429688 -11.484375 8.265625 -11.578125 C 8.097656 -11.679688 7.898438 -11.796875 7.671875 -11.921875 C 7.453125 -12.054688 7.191406 -12.175781 6.890625 -12.28125 C 6.585938 -12.382812 6.226562 -12.4375 5.8125 -12.4375 C 5.4375 -12.4375 5.109375 -12.390625 4.828125 -12.296875 C 4.546875 -12.203125 4.3125 -12.078125 4.125 -11.921875 C 3.9375 -11.765625 3.796875 -11.570312 3.703125 -11.34375 C 3.609375 -11.125 3.5625 -10.878906 3.5625 -10.609375 C 3.5625 -10.265625 3.65625 -9.976562 3.84375 -9.75 C 4.03125 -9.53125 4.28125 -9.335938 4.59375 -9.171875 C 4.90625 -9.015625 5.257812 -8.875 5.65625 -8.75 C 6.0625 -8.625 6.472656 -8.488281 6.890625 -8.34375 C 7.316406 -8.195312 7.726562 -8.03125 8.125 -7.84375 C 8.53125 -7.65625 8.890625 -7.414062 9.203125 -7.125 C 9.515625 -6.832031 9.765625 -6.476562 9.953125 -6.0625 C 10.140625 -5.644531 10.234375 -5.132812 10.234375 -4.53125 C 10.234375 -3.875 10.117188 -3.257812 9.890625 -2.6875 C 9.671875 -2.125 9.347656 -1.628906 8.921875 -1.203125 C 8.492188 -0.773438 7.96875 -0.441406 7.34375 -0.203125 C 6.726562 0.0351562 6.019531 0.15625 5.21875 0.15625 C 4.757812 0.15625 4.304688 0.109375 3.859375 0.015625 C 3.410156 -0.0664062 2.976562 -0.191406 2.5625 -0.359375 C 2.15625 -0.523438 1.769531 -0.722656 1.40625 -0.953125 C 1.050781 -1.191406 0.734375 -1.453125 0.453125 -1.734375 L 1.25 -3.03125 C 1.3125 -3.125 1.394531 -3.203125 1.5 -3.265625 C 1.613281 -3.328125 1.726562 -3.359375 1.84375 -3.359375 C 2.007812 -3.359375 2.191406 -3.289062 2.390625 -3.15625 C 2.585938 -3.019531 2.816406 -2.867188 3.078125 -2.703125 C 3.347656 -2.535156 3.660156 -2.382812 4.015625 -2.25 C 4.367188 -2.113281 4.796875 -2.046875 5.296875 -2.046875 C 6.066406 -2.046875 6.660156 -2.222656 7.078125 -2.578125 C 7.492188 -2.941406 7.703125 -3.46875 7.703125 -4.15625 C 7.703125 -4.53125 7.609375 -4.835938 7.421875 -5.078125 C 7.234375 -5.316406 6.984375 -5.519531 6.671875 -5.6875 C 6.359375 -5.851562 6 -5.988281 5.59375 -6.09375 C 5.195312 -6.207031 4.789062 -6.332031 4.375 -6.46875 C 3.96875 -6.601562 3.5625 -6.765625 3.15625 -6.953125 C 2.757812 -7.140625 2.40625 -7.378906 2.09375 -7.671875 C 1.78125 -7.972656 1.523438 -8.347656 1.328125 -8.796875 C 1.140625 -9.253906 1.046875 -9.8125 1.046875 -10.46875 C 1.046875 -11 1.148438 -11.515625 1.359375 -12.015625 C 1.578125 -12.515625 1.882812 -12.957031 2.28125 -13.34375 C 2.675781 -13.726562 3.164062 -14.035156 3.75 -14.265625 C 4.34375 -14.503906 5.019531 -14.625 5.78125 -14.625 C 6.632812 -14.625 7.421875 -14.488281 8.140625 -14.21875 C 8.859375 -13.945312 9.472656 -13.570312 9.984375 -13.09375 Z M 9.3125 -11.828125 "/></g></g></g><g fill="#ffffff" fill-opacity="1"><g transform="translate(230.92442, 192.674987)"><g/></g></g><g fill="#ffffff" fill-opacity="1"><g transform="translate(235.782505, 192.674987)"><g><path d="M 2.9375 0.03125 C 2.820312 0.332031 2.640625 0.5625 2.390625 0.71875 C 2.140625 0.875 1.882812 0.953125 1.625 0.953125 L 0.578125 0.953125 L 6.421875 -13.984375 C 6.523438 -14.265625 6.6875 -14.476562 6.90625 -14.625 C 7.125 -14.78125 7.382812 -14.859375 7.6875 -14.859375 L 8.734375 -14.859375 Z M 2.9375 0.03125 "/></g></g></g><g fill="#ffffff" fill-opacity="1"><g transform="translate(245.09883, 192.674987)"><g><path d="M 10.09375 -7.234375 L 10.09375 -6.234375 L 2.15625 -2.09375 L 2.15625 -3.859375 C 2.15625 -3.992188 2.1875 -4.117188 2.25 -4.234375 C 2.320312 -4.347656 2.4375 -4.441406 2.59375 -4.515625 L 6.21875 -6.375 C 6.53125 -6.53125 6.875 -6.648438 7.25 -6.734375 C 6.875 -6.828125 6.53125 -6.945312 6.21875 -7.09375 L 2.59375 -8.953125 C 2.4375 -9.035156 2.320312 -9.128906 2.25 -9.234375 C 2.1875 -9.347656 2.15625 -9.472656 2.15625 -9.609375 L 2.15625 -11.375 Z M 10.09375 -7.234375 "/></g></g></g></svg>